<svg width="56" height="25" viewBox="0 0 56 25" fill="none" xmlns="http://www.w3.org/2000/svg">
<path d="M34.5259 6.33005C33.5745 7.80127 31.5361 7.94572 29.7558 6.79421C27.975 5.6427 27.303 3.51668 28.2544 2.04547C29.2058 0.574254 31.0826 0.115425 32.8628 1.26694C34.6425 2.41845 35.4767 4.85884 34.5259 6.33005Z" fill="white"/>
<path d="M22.409 2.61572C22.409 2.61572 19.9976 6.52495 22.5866 10.6882C22.5866 10.6882 25.455 15.1811 30.7857 14.9781C30.7857 14.9781 34.2344 15.2066 37.0921 10.9422C37.0921 10.9422 36.4214 13.9882 33.5275 15.8667C33.5275 15.8667 28.6538 19.4971 23.2213 15.3842C23.2213 15.3842 19.6418 12.8456 20.0225 7.87006C20.0225 7.87006 20.2256 4.82403 22.409 2.61572Z" fill="white"/>
<path d="M30.7853 0.187131C30.7853 0.187131 25.962 -0.21901 25.4884 3.87675C25.4884 3.87675 24.7945 7.07555 29.2283 9.10626C29.2283 9.10626 34.4068 11.2897 35.6087 7.1093C35.6087 7.1093 36.0148 5.04485 35.3381 3.03071C35.3381 3.03071 36.9117 4.75711 37.0473 6.70316C37.0473 6.70316 37.4369 8.58171 35.9136 10.5958C35.9136 10.5958 33.1381 14.302 28.2301 12.745C28.2301 12.745 22.2558 10.9173 22.2055 5.58597C22.2055 5.58538 21.7485 -1.20062 30.7853 0.187131Z" fill="white"/>
<path d="M27.9755 2.61572C27.9755 2.61572 28.6025 4.89211 31.0393 5.53506C31.0393 5.53506 33.6792 6.51252 34.7627 3.87262C34.7627 3.87262 35.9041 7.59358 31.9612 7.55983C31.9612 7.55983 28.8145 7.52609 27.8719 4.16568C27.8713 4.16449 27.7038 3.11481 27.9755 2.61572Z" fill="white"/>
<path d="M22.5357 3.73242C22.5357 3.73242 21.4949 6.97787 25.4296 10.3251C25.4296 10.3251 29.1357 13.5191 33.502 11.807C33.502 11.807 36.0661 10.7336 36.9287 8.45969C36.9287 8.45969 36.3704 11.7306 32.6643 12.8803C32.6643 12.8803 28.0849 14.2988 24.1756 10.3121C24.1756 10.3127 21.0633 7.08029 22.5357 3.73242Z" fill="white"/>
<path d="M34.7612 14.7489C31.6683 17.7648 27.3536 16.6026 27.3536 16.6026C22.1785 15.5873 20.699 10.8485 20.699 10.8485C19.6665 8.24228 20.699 5.26367 20.699 5.26367C19.8696 6.88826 19.9939 9.15641 19.9939 9.15641C20.4563 15.1136 25.5946 16.7335 25.5946 16.7335C30.0923 18.4362 33.1076 16.4961 34.7629 14.7507C34.7623 14.7501 34.7618 14.7495 34.7612 14.7489Z" fill="white"/>
<path d="M30.7856 0.187012C30.7856 0.187012 27.1256 0.083998 25.9297 2.38525C25.9297 2.38525 26.3234 0.559403 27.7224 0.0176884C27.7224 0.0176884 28.2901 -0.0776288 30.7856 0.187012Z" fill="white"/>
<path d="M35.3384 3.03027C35.3384 3.03027 35.9807 5.42219 35.677 6.81885C35.677 6.81885 36.2714 4.98229 36.0015 3.91066L35.3384 3.03027Z" fill="white"/>
<path d="M0.89317 24.6875V24.5815H1.02164C1.13413 24.5815 1.21998 24.5638 1.28036 24.5288C1.34016 24.4933 1.38456 24.4454 1.41298 24.3844C1.43015 24.3447 1.43844 24.2245 1.43844 24.0244V21.4752C1.43844 21.2769 1.42778 21.1531 1.40706 21.1034C1.38634 21.0537 1.34371 21.0104 1.27977 20.9731C1.21583 20.9358 1.12999 20.9175 1.02105 20.9175H0.892578V20.8115H2.62726C3.09023 20.8115 3.46262 20.8743 3.74444 21.0004C4.089 21.1549 4.35068 21.3882 4.52889 21.7007C4.70709 22.0133 4.7959 22.3668 4.7959 22.7611C4.7959 23.0334 4.75209 23.2844 4.66447 23.5141C4.57684 23.7438 4.46317 23.9333 4.32463 24.083C4.18551 24.2328 4.02506 24.3524 3.84331 24.443C3.66155 24.5336 3.43894 24.6034 3.17608 24.6532C3.06004 24.6763 2.8771 24.6875 2.62726 24.6875H0.89317ZM2.3709 21.0329V24.0564C2.3709 24.2162 2.3786 24.3145 2.39399 24.3506C2.40938 24.3868 2.43484 24.4146 2.47096 24.4335C2.52246 24.4619 2.59647 24.4761 2.69416 24.4761C3.01208 24.4761 3.25541 24.3678 3.42296 24.1505C3.65148 23.8569 3.76575 23.4016 3.76575 22.7847C3.76575 22.2874 3.6876 21.8902 3.5313 21.593C3.40756 21.3603 3.24831 21.2023 3.05412 21.1188C2.91676 21.0596 2.68883 21.0306 2.3709 21.0329Z" fill="white"/>
<path d="M5.18028 20.8125H7.18078V20.9185H7.08072C6.93034 20.9185 6.82674 20.9339 6.77049 20.9658C6.71425 20.9972 6.67399 21.0404 6.65031 21.0961C6.62663 21.1512 6.61479 21.2897 6.61479 21.5105V23.4081C6.61479 23.755 6.64084 23.9842 6.69353 24.0967C6.74563 24.2091 6.83207 24.3027 6.95225 24.3767C7.07243 24.4507 7.224 24.488 7.40634 24.488C7.61593 24.488 7.79472 24.4406 7.94214 24.3465C8.08956 24.2524 8.20027 24.1221 8.27368 23.9563C8.34709 23.7906 8.3838 23.5022 8.3838 23.0902V21.5099C8.3838 21.3365 8.36545 21.2127 8.32933 21.1387C8.29322 21.0641 8.24763 21.0132 8.19198 20.9842C8.10613 20.9404 7.98536 20.9185 7.82906 20.9185V20.8125H9.16943V20.9185H9.08951C8.98117 20.9185 8.89058 20.9404 8.81776 20.9842C8.74553 21.028 8.69284 21.0937 8.66087 21.1814C8.63601 21.2423 8.62357 21.3519 8.62357 21.5099V22.9818C8.62357 23.4371 8.59338 23.7657 8.53359 23.9676C8.47379 24.1695 8.32756 24.3554 8.09488 24.5247C7.86221 24.694 7.54547 24.7793 7.14348 24.7793C6.80838 24.7793 6.54907 24.7343 6.36613 24.6449C6.11629 24.5229 5.94046 24.3666 5.83744 24.176C5.73443 23.9853 5.68292 23.729 5.68292 23.4069V21.5094C5.68292 21.2861 5.67049 21.1476 5.64562 21.0937C5.62076 21.0393 5.57813 20.996 5.51715 20.9635C5.45617 20.9309 5.34368 20.9161 5.17969 20.9179V20.8125H5.18028Z" fill="white"/>
<path d="M11.7043 23.5844H10.3355L10.1727 23.9615C10.1194 24.087 10.0928 24.1912 10.0928 24.2729C10.0928 24.3813 10.1366 24.4618 10.2242 24.5127C10.2757 24.5429 10.4024 24.566 10.6043 24.5814V24.6873H9.31543V24.5814C9.45456 24.5606 9.56882 24.5026 9.65822 24.4085C9.74762 24.3144 9.85833 24.1196 9.98976 23.8241L11.3757 20.7319H11.4302L12.8274 23.91C12.9606 24.2107 13.0701 24.4008 13.156 24.4789C13.2205 24.5381 13.3123 24.5725 13.4301 24.582V24.6879H11.5551V24.582H11.6321C11.7825 24.582 11.8884 24.5612 11.9494 24.5192C11.9914 24.489 12.0122 24.4452 12.0122 24.3878C12.0122 24.3534 12.0062 24.3179 11.995 24.2818C11.9914 24.2646 11.9624 24.193 11.9091 24.0675L11.7043 23.5844ZM11.6072 23.373L11.03 22.0386L10.4356 23.373H11.6072Z" fill="white"/>
<path d="M14.9534 20.8125L16.8651 23.2154V21.5495C16.8651 21.3169 16.832 21.16 16.7651 21.0783C16.6739 20.9676 16.52 20.9143 16.3051 20.9185V20.8125H17.5856V20.9185C17.4216 20.9392 17.3115 20.9664 17.2553 20.9996C17.199 21.0327 17.1552 21.0872 17.1238 21.1624C17.0925 21.2375 17.0765 21.3666 17.0765 21.5495V24.7759H16.9794L14.359 21.5495V24.0128C14.359 24.236 14.4099 24.3863 14.5118 24.4645C14.6136 24.5426 14.7302 24.5817 14.8617 24.5817H14.9528V24.6877H13.5787V24.5817C13.7919 24.5799 13.9405 24.5361 14.0245 24.4503C14.1086 24.3644 14.15 24.2188 14.15 24.0134V21.279L14.0671 21.176C13.9854 21.073 13.9126 21.0055 13.8499 20.9729C13.7871 20.9404 13.6965 20.9226 13.5781 20.9185V20.8125H14.9534Z" fill="white"/>
<path d="M21.4147 20.8125V21.861H21.3117C21.2507 21.6189 21.1832 21.4454 21.1086 21.3394C21.0346 21.2334 20.9322 21.1494 20.8031 21.0866C20.7309 21.0523 20.6042 21.0351 20.423 21.0351H20.1341V24.0243C20.1341 24.2226 20.1448 24.3464 20.1673 24.3961C20.1892 24.4458 20.2318 24.4891 20.2957 24.5264C20.3597 24.5637 20.4467 24.582 20.5574 24.582H20.6859V24.688H18.657V24.582H18.7854C18.8979 24.582 18.9885 24.5619 19.0572 24.5222C19.1069 24.4956 19.146 24.45 19.1744 24.3849C19.1951 24.3393 19.2058 24.2191 19.2058 24.0249V21.0357H18.9257C18.6647 21.0357 18.4752 21.0908 18.3568 21.2015C18.191 21.356 18.0862 21.5756 18.0424 21.8616H17.9341V20.8131H21.4147V20.8125Z" fill="white"/>
<path d="M23.6267 23.5844H22.2579L22.0951 23.9615C22.0418 24.087 22.0151 24.1912 22.0151 24.2729C22.0151 24.3813 22.059 24.4618 22.1466 24.5127C22.1981 24.5429 22.3248 24.566 22.5267 24.5814V24.6873H21.2378V24.5814C21.3769 24.5606 21.4912 24.5026 21.5806 24.4085C21.67 24.3144 21.7807 24.1196 21.9121 23.8241L23.2981 20.7319H23.3526L24.7498 23.91C24.883 24.2107 24.9925 24.4008 25.0783 24.4789C25.1429 24.5381 25.2346 24.5725 25.3525 24.582V24.6879H23.4775V24.582H23.5544C23.7048 24.582 23.8108 24.5612 23.8718 24.5192C23.9138 24.489 23.9345 24.4452 23.9345 24.3878C23.9345 24.3534 23.9286 24.3179 23.9174 24.2818C23.9138 24.2646 23.8848 24.193 23.8315 24.0675L23.6267 23.5844ZM23.5296 23.373L22.9523 22.0386L22.3579 23.373H23.5296Z" fill="white"/>
<path d="M28.3682 23.6387H26.7021V23.0474H28.3682V23.6387Z" fill="white"/>
<path d="M34.0317 20.8125V20.9185C33.8908 20.9416 33.7647 21.0167 33.6546 21.144C33.5747 21.2393 33.4557 21.4631 33.2976 21.8153L31.9631 24.7759H31.869L30.5399 21.6957C30.38 21.324 30.2729 21.1061 30.2184 21.0416C30.1639 20.9771 30.0615 20.9356 29.9111 20.9191V20.8131H31.769V20.9191H31.7062C31.5387 20.9191 31.4244 20.9398 31.3634 20.9818C31.3196 21.0102 31.2977 21.0523 31.2977 21.1073C31.2977 21.1416 31.3054 21.1819 31.3208 21.2287C31.3362 21.2754 31.3877 21.4003 31.4753 21.6046L32.3012 23.5333L33.0673 21.8159C33.1585 21.6081 33.2147 21.469 33.236 21.3986C33.2568 21.3281 33.2674 21.2683 33.2674 21.2186C33.2674 21.1618 33.252 21.1109 33.2218 21.0671C33.1916 21.0232 33.1466 20.9901 33.0874 20.967C33.0057 20.9344 32.8968 20.9185 32.7618 20.9185V20.8125H34.0317Z" fill="white"/>
<path d="M35.7727 23.5844H34.4039L34.2411 23.9615C34.1878 24.087 34.1611 24.1912 34.1611 24.2729C34.1611 24.3813 34.2049 24.4618 34.2926 24.5127C34.3441 24.5429 34.4708 24.566 34.6727 24.5814V24.6873H33.3838V24.5814C33.5229 24.5606 33.6372 24.5026 33.7266 24.4085C33.816 24.3144 33.9267 24.1196 34.0581 23.8241L35.4441 20.7319H35.4986L36.8958 23.91C37.029 24.2107 37.1385 24.4008 37.2243 24.4789C37.2889 24.5381 37.3806 24.5725 37.4985 24.582V24.6879H35.6241V24.582H35.701C35.8514 24.582 35.9574 24.5612 36.0184 24.5192C36.0604 24.489 36.0811 24.4452 36.0811 24.3878C36.0811 24.3534 36.0752 24.3179 36.0639 24.2818C36.0604 24.2646 36.0314 24.193 35.9781 24.0675L35.7727 23.5844ZM35.675 23.373L35.0977 22.0386L34.5033 23.373H35.675Z" fill="white"/>
<path d="M39.0219 20.8125L40.9336 23.2154V21.5495C40.9336 21.3169 40.9004 21.16 40.8335 21.0783C40.7424 20.9676 40.5884 20.9143 40.3735 20.9185V20.8125H41.6541V20.9185C41.4901 20.9392 41.38 20.9664 41.3238 20.9996C41.2675 21.0327 41.2237 21.0872 41.1923 21.1624C41.1609 21.2375 41.145 21.3666 41.145 21.5495V24.7759H41.0479L38.4275 21.5495V24.0128C38.4275 24.236 38.4784 24.3863 38.5802 24.4645C38.6821 24.5426 38.7987 24.5817 38.9301 24.5817H39.0213V24.6877H37.6466V24.5817C37.8597 24.5799 38.0083 24.5361 38.0924 24.4503C38.1765 24.3644 38.2179 24.2188 38.2179 24.0134V21.279L38.135 21.176C38.0533 21.073 37.9805 21.0055 37.9177 20.9729C37.855 20.9404 37.7644 20.9226 37.646 20.9185V20.8125H39.0219Z" fill="white"/>
<path d="M45.6913 22.2955L47.0542 24.0019C47.2466 24.2417 47.4123 24.4051 47.5515 24.4903C47.6527 24.5513 47.7593 24.5815 47.8718 24.5815V24.6875H45.8541V24.5815C45.982 24.5703 46.0643 24.5501 46.1016 24.5217C46.1389 24.4933 46.1572 24.4578 46.1572 24.4157C46.1572 24.3358 46.0696 24.1854 45.8943 23.964L45.0057 22.8467L44.863 22.9669V24.0244C44.863 24.2263 44.8742 24.3524 44.8973 24.4015C44.9204 24.4513 44.9642 24.4933 45.0288 24.5288C45.0933 24.5643 45.1975 24.5815 45.3402 24.5815V24.6875H43.3853V24.5815H43.5137C43.6262 24.5815 43.7168 24.5614 43.7855 24.5217C43.8352 24.4951 43.8731 24.4495 43.8997 24.3844C43.9205 24.3388 43.9311 24.2186 43.9311 24.0244V21.4749C43.9311 21.2765 43.9205 21.1528 43.8997 21.103C43.879 21.0533 43.8364 21.0101 43.7724 20.9728C43.7085 20.9355 43.6227 20.9171 43.5137 20.9171H43.3853V20.8111H45.3141V20.9171C45.1827 20.9171 45.0826 20.9361 45.014 20.974C44.9642 21.0006 44.9252 21.0456 44.8967 21.1084C44.8737 21.1557 44.8624 21.2783 44.8624 21.4743V22.6803L46.2999 21.5169C46.5 21.3547 46.6001 21.2256 46.6001 21.1279C46.6001 21.0557 46.5592 20.9982 46.4775 20.9562C46.4355 20.9355 46.3319 20.9219 46.1661 20.9165V20.8105H47.6776V20.9165C47.542 20.926 47.436 20.9503 47.3591 20.9894C47.2821 21.0284 47.1045 21.1605 46.8262 21.3855L45.6913 22.2955Z" fill="white"/>
<path d="M49.4069 22.8243V24.0243C49.4069 24.2227 49.4182 24.3464 49.4395 24.3961C49.4614 24.4459 49.504 24.4891 49.568 24.5264C49.6319 24.5637 49.7178 24.582 49.8267 24.582H49.9552V24.688H47.9292V24.582H48.0577C48.1702 24.582 48.2607 24.5619 48.3294 24.5222C48.3792 24.4956 48.417 24.45 48.4437 24.3849C48.4644 24.3393 48.4751 24.2191 48.4751 24.0249V21.4758C48.4751 21.2774 48.4644 21.1537 48.4437 21.104C48.423 21.0542 48.3803 21.011 48.3164 20.9737C48.2525 20.9364 48.1666 20.9181 48.0577 20.9181H47.9292V20.8121H49.9552V20.9181H49.8267C49.7142 20.9181 49.6236 20.9382 49.5549 20.9779C49.5052 21.0045 49.4661 21.0501 49.4377 21.1152C49.417 21.1608 49.4063 21.281 49.4063 21.4752V22.5727H50.7751V21.4752C50.7751 21.2768 50.7645 21.1531 50.7438 21.1034C50.723 21.0537 50.6798 21.0104 50.6153 20.9731C50.5508 20.9358 50.4637 20.9175 50.3554 20.9175H50.2299V20.8115H52.2535V20.9175H52.128C52.0137 20.9175 51.9231 20.9376 51.8562 20.9773C51.8065 21.0039 51.7674 21.0495 51.739 21.1146C51.7183 21.1602 51.7076 21.2804 51.7076 21.4746V24.0238C51.7076 24.2221 51.7183 24.3458 51.739 24.3955C51.7597 24.4453 51.8029 24.4885 51.8675 24.5258C51.932 24.5631 52.019 24.5814 52.1274 24.5814H52.2529V24.6874H50.2293V24.5814H50.3548C50.4691 24.5814 50.5596 24.5613 50.6265 24.5216C50.6763 24.495 50.7154 24.4494 50.7438 24.3843C50.7645 24.3387 50.7751 24.2185 50.7751 24.0243V22.8243H49.4069Z" fill="white"/>
<path d="M53.9533 21.0349V22.6127H54.0303C54.276 22.6127 54.4542 22.5357 54.5649 22.3812C54.6756 22.2267 54.746 21.9993 54.7762 21.698H54.8846V23.7269H54.7762C54.7532 23.506 54.7052 23.3249 54.6318 23.184C54.5584 23.0431 54.4731 22.9483 54.376 22.8998C54.2789 22.8513 54.138 22.827 53.9533 22.827V23.9187C53.9533 24.1324 53.9622 24.2626 53.9805 24.31C53.9989 24.3574 54.0326 24.397 54.0818 24.4272C54.1315 24.458 54.2114 24.4728 54.3216 24.4728H54.553C54.9148 24.4728 55.2049 24.3887 55.4233 24.2212C55.6412 24.0537 55.7981 23.7985 55.8934 23.4551H55.9994L55.8253 24.6865H52.4756V24.5805H52.6041C52.7165 24.5805 52.8071 24.5604 52.8758 24.5208C52.9255 24.4941 52.9634 24.4485 52.9901 24.3834C53.0108 24.3378 53.0214 24.2176 53.0214 24.0235V21.4742C53.0214 21.299 53.0167 21.1912 53.0072 21.151C52.9883 21.0841 52.9528 21.0331 52.9013 20.9964C52.829 20.9432 52.7296 20.9165 52.6041 20.9165H52.4756V20.8105H55.7194V21.9567H55.611C55.556 21.6767 55.4784 21.476 55.3783 21.354C55.2783 21.2321 55.1368 21.1427 54.9539 21.0852C54.8473 21.0509 54.6472 21.0337 54.3535 21.0337H53.9533V21.0349Z" fill="white"/>
</svg>
